<svg xmlns="http://www.w3.org/2000/svg" xmlns:xlink="http://www.w3.org/1999/xlink" width="500" zoomAndPan="magnify" viewBox="0 0 375 374.999991" height="500" preserveAspectRatio="xMidYMid meet" version="1.0"><defs><clipPath id="c02723adec"><path d="M 2.726562 22 L 328 22 L 328 375 L 2.726562 375 Z M 2.726562 22 " clip-rule="nonzero"/></clipPath></defs><path fill="#ff50bb" d="M 108.605469 3.15625 C 139.109375 8.414062 166.457031 28.925781 179.609375 56.800781 C 188.023438 74.160156 190.652344 93.09375 196.4375 111.5 C 202.222656 129.910156 211.164062 148.316406 227.996094 157.785156 C 259.550781 176.191406 302.679688 155.152344 335.289062 171.457031 C 363.164062 185.660156 372.105469 223 365.792969 253.507812 C 356.324219 297.6875 320.5625 335.027344 276.90625 346.074219 C 233.253906 357.644531 183.816406 342.390625 154.363281 308.203125 C 141.214844 292.953125 131.21875 274.542969 114.390625 264.023438 C 85.988281 246.144531 42.863281 253.507812 22.875 226.683594 C 7.097656 206.171875 14.984375 176.191406 26.558594 153.050781 C 38.128906 129.910156 53.378906 106.242188 51.277344 80.46875 C 49.699219 60.484375 21.824219 39.445312 34.972656 21.039062 C 48.121094 2.628906 88.617188 0 108.605469 3.15625 Z M 275.328125 109.398438 C 293.210938 110.449219 294.265625 84.152344 292.160156 73.105469 C 290.582031 65.21875 287.953125 56.800781 282.167969 51.015625 C 276.90625 44.707031 268.492188 41.023438 260.078125 42.601562 C 246.402344 45.757812 240.617188 63.640625 245.351562 76.789062 C 249.03125 85.203125 264.8125 108.871094 275.328125 109.398438 Z M 37.601562 362.378906 C 55.484375 363.429688 56.535156 337.132812 54.433594 326.085938 C 52.855469 318.199219 50.226562 309.78125 44.4375 303.996094 C 39.179688 297.6875 30.765625 294.003906 22.347656 295.582031 C 8.675781 298.738281 2.890625 316.621094 7.625 329.769531 C 10.777344 338.183594 27.082031 361.851562 37.601562 362.378906 Z M 37.601562 362.378906 " fill-opacity="1" fill-rule="nonzero"/><g clip-path="url(#c02723adec)"><path fill="#c7057c" d="M 195.386719 375 C 192.230469 375 189.074219 375 185.917969 374.472656 C 155.414062 371.84375 128.589844 352.382812 120.175781 327.664062 C 113.863281 308.730469 118.597656 288.746094 122.804688 269.285156 C 123.855469 265.078125 124.910156 260.34375 125.433594 256.136719 C 128.589844 239.304688 131.21875 208.273438 110.707031 193.023438 C 98.085938 183.554688 81.253906 183.03125 64.425781 182.503906 C 60.742188 182.503906 57.0625 182.503906 53.378906 181.976562 C 31.816406 180.925781 7.097656 171.984375 2.890625 151.472656 L 8.148438 150.421875 C 11.832031 168.304688 34.972656 175.667969 53.378906 176.71875 C 57.0625 176.71875 60.742188 177.242188 64.425781 177.242188 C 81.78125 177.769531 99.664062 178.296875 113.339844 188.816406 C 136.480469 206.171875 133.851562 238.78125 130.167969 257.1875 C 129.117188 261.394531 128.066406 266.128906 127.539062 270.335938 C 123.332031 288.746094 119.125 308.203125 124.382812 326.085938 C 131.746094 348.703125 156.992188 366.585938 185.394531 369.214844 C 209.585938 371.316406 235.882812 364.480469 263.234375 348.703125 C 282.691406 337.132812 308.464844 317.671875 318.457031 289.796875 C 327.925781 262.972656 318.984375 232.46875 297.417969 218.792969 C 283.746094 210.378906 267.964844 208.800781 250.609375 207.222656 C 235.359375 205.644531 219.578125 204.066406 205.378906 197.230469 C 179.609375 184.082031 167.511719 156.730469 159.09375 131.488281 L 156.992188 124.648438 C 149.101562 101.507812 141.214844 77.839844 123.332031 62.0625 C 105.976562 46.808594 79.675781 40.496094 57.0625 46.808594 C 34.445312 53.121094 15.511719 71.527344 9.199219 93.09375 L 3.941406 91.515625 C 10.777344 67.847656 30.765625 48.386719 55.484375 41.550781 C 80.203125 34.710938 108.078125 41.023438 127.011719 57.855469 C 145.945312 74.683594 154.363281 99.402344 162.25 123.070312 L 164.355469 129.382812 C 172.769531 153.578125 184.339844 180.398438 208.007812 192.496094 C 221.15625 198.808594 236.410156 200.386719 251.136719 201.964844 C 267.964844 203.542969 285.324219 205.644531 300.050781 214.585938 C 324.242188 229.3125 334.234375 262.449219 323.71875 291.375 C 315.300781 315.042969 295.316406 336.078125 266.390625 353.4375 C 241.667969 367.636719 218 375 195.386719 375 Z M 301.628906 89.410156 C 308.992188 80.996094 309.515625 63.640625 307.9375 55.222656 C 305.835938 45.230469 302.679688 37.34375 297.417969 31.558594 C 291.109375 24.195312 281.117188 20.511719 273.226562 22.617188 C 266.914062 23.667969 262.179688 27.875 258.5 34.1875 C 254.292969 42.074219 253.238281 52.070312 256.394531 60.484375 C 259.550781 68.375 275.855469 94.144531 288.480469 95.195312 C 289.003906 95.195312 289.53125 95.195312 289.53125 95.195312 C 294.265625 95.195312 298.472656 93.09375 301.628906 89.410156 Z M 261.128906 58.90625 C 258.5 52.070312 259.550781 43.128906 262.707031 36.816406 C 264.8125 33.660156 267.964844 29.453125 273.753906 27.875 C 280.0625 26.296875 287.953125 29.453125 293.210938 35.238281 C 297.417969 39.972656 300.574219 46.808594 302.152344 56.277344 C 303.730469 64.691406 303.203125 79.417969 297.417969 86.253906 C 295.316406 88.886719 292.160156 89.9375 288.480469 89.9375 C 280.0625 89.410156 264.8125 67.847656 261.128906 58.90625 Z M 63.898438 342.917969 C 71.261719 334.503906 71.789062 317.144531 70.210938 308.730469 C 68.105469 298.738281 64.953125 290.847656 59.691406 285.0625 C 53.378906 277.699219 43.386719 274.019531 35.5 276.121094 C 29.1875 277.175781 24.453125 281.382812 20.773438 287.691406 C 16.5625 295.582031 15.511719 305.574219 18.667969 313.988281 C 21.824219 321.878906 38.128906 347.652344 50.75 348.703125 C 51.277344 348.703125 51.800781 348.703125 51.800781 348.703125 C 56.535156 348.175781 60.742188 346.074219 63.898438 342.917969 Z M 23.402344 311.886719 C 20.773438 305.050781 21.824219 296.109375 24.980469 289.796875 C 27.082031 286.640625 30.238281 282.433594 36.023438 280.855469 C 42.335938 279.277344 50.226562 282.433594 55.484375 288.21875 C 59.691406 292.953125 62.847656 299.789062 64.425781 309.257812 C 66.003906 317.671875 65.476562 332.398438 59.691406 339.234375 C 57.589844 341.867188 54.433594 342.917969 50.75 342.917969 C 41.808594 342.390625 26.558594 321.351562 23.402344 311.886719 Z M 23.402344 311.886719 " fill-opacity="1" fill-rule="nonzero"/></g></svg>