<svg xmlns="http://www.w3.org/2000/svg" xmlns:xlink="http://www.w3.org/1999/xlink" width="500" zoomAndPan="magnify" viewBox="0 0 375 374.999991" height="500" preserveAspectRatio="xMidYMid meet" version="1.0"><defs><clipPath id="c3b0b0ae42"><path d="M 2 12 L 372 12 L 372 363.75 L 2 363.75 Z M 2 12 " clip-rule="nonzero"/></clipPath></defs><g clip-path="url(#c3b0b0ae42)"><path fill="#e9008e" d="M 231.054688 363.359375 C 220.214844 363.226562 207.679688 361.269531 196.445312 360.746094 C 184.039062 360.09375 173.460938 361.136719 162.359375 361.789062 C 144.464844 362.835938 125.398438 362.964844 105.285156 362.050781 C 87.785156 361.136719 68.976562 359.441406 47.425781 352.910156 C 33.453125 348.601562 16.996094 341.285156 8.375 332.796875 C 0.410156 324.960938 1.714844 318.691406 4.851562 314.121094 C 9.550781 307.328125 18.042969 301.972656 33.191406 301.972656 C 42.332031 301.972656 53.433594 303.933594 64.015625 305.5 C 103.066406 310.984375 136.5 310.464844 174.636719 315.035156 C 190.832031 316.992188 209.375 320.257812 227.792969 329.007812 C 270.105469 348.992188 254.171875 363.75 231.054688 363.359375 Z M 247.511719 311.640625 C 266.84375 308.765625 248.949219 289.566406 234.320312 283.558594 C 223.351562 279.117188 212.378906 275.199219 201.277344 271.542969 C 183.910156 265.667969 165.753906 260.050781 150.082031 261.488281 C 139.894531 262.402344 130.492188 267.496094 131.144531 276.769531 C 131.273438 278.335938 131.796875 280.164062 133.101562 281.730469 C 134.671875 283.558594 137.152344 284.734375 139.371094 285.78125 C 155.566406 292.832031 172.152344 297.140625 188.480469 301.320312 C 206.503906 305.890625 231.1875 314.121094 247.511719 311.640625 Z M 193.179688 230.011719 C 207.941406 237.585938 287.214844 283.429688 272.066406 241.242188 C 265.40625 222.4375 248.949219 206.109375 230.925781 193.835938 C 212.902344 181.558594 193.050781 172.285156 174.113281 161.445312 C 154.785156 150.472656 136.5 137.675781 119.257812 123.832031 C 106.199219 113.25 93.398438 101.757812 77.988281 95.488281 C 62.578125 89.21875 43.507812 90.265625 36.71875 102.019531 C 31.363281 111.554688 35.542969 125.136719 43.902344 135.324219 C 52.257812 145.511719 63.882812 153.214844 75.246094 160.53125 C 113.644531 185.082031 152.5625 209.246094 193.179688 230.011719 Z M 284.210938 204.9375 C 289.566406 210.8125 296.488281 220.476562 304.585938 222.4375 C 313.859375 224.789062 322.609375 216.949219 322.480469 206.109375 C 322.480469 200.886719 320.519531 196.316406 318.167969 192.136719 C 312.8125 182.339844 305.632812 173.984375 297.140625 167.582031 C 289.304688 161.707031 279.902344 156.875 276.375 147.078125 C 274.808594 142.636719 274.417969 137.152344 271.414062 133.886719 C 267.757812 130.097656 261.617188 130.359375 256 131.40625 C 251.5625 132.1875 245.816406 134.539062 244.769531 139.371094 C 244.246094 141.984375 245.421875 144.335938 246.46875 146.425781 C 257.570312 167.058594 268.800781 187.957031 284.210938 204.9375 Z M 368.191406 217.605469 C 374.589844 203.761719 369.105469 187.695312 363.75 173.328125 C 347.554688 129.839844 333.710938 85.433594 322.347656 40.375 C 319.34375 28.75 314.382812 14.90625 302.496094 12.949219 C 292.179688 11.25 282.777344 21.046875 280.816406 31.492188 C 278.988281 41.8125 282.515625 52.257812 286.039062 62.183594 C 294.398438 85.695312 302.628906 109.332031 310.984375 132.84375 C 315.425781 145.25 319.867188 157.917969 327.441406 168.628906 C 334.101562 178.03125 343.246094 186.257812 345.855469 197.359375 C 347.164062 202.976562 346.773438 208.984375 348.730469 214.339844 C 350.691406 219.695312 356.699219 224.394531 361.921875 222.175781 C 364.011719 221.261719 365.449219 219.5625 366.753906 217.734375 C 371.71875 210.289062 372.5 200.234375 368.582031 192.003906 " fill-opacity="1" fill-rule="nonzero"/></g></svg>