<svg xmlns="http://www.w3.org/2000/svg" xmlns:xlink="http://www.w3.org/1999/xlink" width="500" zoomAndPan="magnify" viewBox="0 0 375 374.999991" height="500" preserveAspectRatio="xMidYMid meet" version="1.0"><path fill="#c7057c" d="M 286.820312 115.675781 C 286.242188 125.792969 277.402344 133.207031 267.1875 130.019531 C 262.054688 128.417969 257.550781 125.824219 253.808594 122.011719 C 248.78125 116.886719 242.804688 112.914062 237.351562 108.304688 C 231.519531 103.371094 226.609375 97.683594 221.871094 91.785156 C 213.453125 81.308594 204.75 71.074219 195.90625 60.953125 C 188.871094 52.894531 181.566406 45.015625 176.21875 35.625 C 173.425781 30.71875 172.773438 25.136719 171.238281 19.847656 C 170.382812 16.917969 171.648438 13.957031 173.382812 11.53125 C 178.175781 4.816406 184.113281 -0.0234375 193.304688 0.589844 C 199.34375 0.0664062 204.769531 2.597656 209.933594 5.722656 C 221.488281 12.714844 230.820312 22.195312 239.519531 32.40625 C 247.226562 41.445312 255.039062 50.40625 261.332031 60.5 C 269.722656 73.957031 277.984375 87.480469 283.535156 102.496094 C 285.140625 106.851562 287.097656 110.816406 286.820312 115.675781 Z M 214.546875 179.960938 C 209.957031 178.203125 205.148438 177.132812 200.792969 174.625 C 189.507812 168.117188 177.785156 162.476562 165.511719 158.050781 C 157.019531 154.988281 148.246094 152.90625 139.433594 151.015625 C 129.214844 148.824219 119.011719 148.15625 108.707031 150.890625 C 91.90625 155.351562 87.871094 171.253906 91.296875 184.214844 C 92.824219 190.003906 97.949219 191.988281 102.894531 193.9375 C 112.3125 197.644531 122.386719 198.828125 132.136719 201.226562 C 144.953125 204.375 157.707031 207.828125 170.636719 210.558594 C 179.992188 212.539062 189.359375 213.773438 198.296875 214.167969 C 203.210938 213.914062 207.628906 213.859375 211.574219 215.734375 C 216.722656 218.1875 226.621094 215.136719 230.535156 209.742188 C 232.519531 207.011719 233.996094 203.992188 233.183594 200.363281 C 230.863281 189.992188 224.1875 183.65625 214.546875 179.960938 Z M 218.464844 292.988281 C 218.316406 291.433594 216.84375 290.59375 216.253906 289.230469 C 214.429688 285.054688 210.09375 283.273438 206.09375 285.265625 C 202.058594 287.269531 198.066406 289.433594 194.253906 291.84375 C 176.210938 303.253906 161.558594 318.460938 147.578125 334.320312 C 142.03125 340.613281 137.238281 347.527344 135.613281 356.15625 C 134.328125 362.984375 136.871094 368.648438 142.984375 371.867188 C 146.71875 373.832031 150.769531 374.144531 154.792969 374.5 C 160.144531 374.976562 164.570312 373.054688 168.191406 368.96875 C 171.203125 365.574219 173.722656 361.835938 176.316406 358.15625 C 181 351.515625 187.359375 346.285156 192.023438 339.722656 C 199.800781 328.785156 207.160156 317.546875 214.96875 306.617188 C 217.046875 303.710938 219.164062 300.460938 218.480469 296.160156 C 218.484375 295.292969 218.574219 294.132812 218.464844 292.988281 Z M 233.9375 139.480469 C 224.59375 135.421875 216.824219 128.566406 207.292969 124.800781 C 202.015625 122.714844 196.992188 119.996094 190.988281 120.671875 C 186.410156 120.183594 182.148438 120.921875 179.398438 125.15625 C 176.339844 129.859375 177.125 134.503906 181.851562 139.214844 C 192.238281 149.550781 204.957031 155.761719 218.867188 159.777344 C 221.175781 160.441406 223.59375 160.773438 225.859375 161.550781 C 228.816406 162.566406 231.703125 162.160156 234.191406 160.765625 C 239.789062 157.617188 240.277344 153.03125 238.847656 146.484375 C 238.222656 143.648438 236.886719 140.761719 233.9375 139.480469 Z M 173.789062 277.917969 C 181.183594 277.917969 187.519531 276.441406 194.703125 273 C 198.683594 271.09375 202.734375 269.433594 207.007812 268.226562 C 214.511719 266.09375 218.097656 257.742188 214.652344 250.917969 C 214.378906 250.378906 214.1875 249.761719 214.125 249.167969 C 213.589844 244.035156 210.144531 241.371094 205.335938 242.722656 C 196.644531 245.167969 187.683594 245.789062 178.804688 247.011719 C 172.1875 247.925781 165.742188 249.480469 161.078125 254.832031 C 158.769531 257.480469 156.816406 260.480469 157.324219 264.164062 C 158.351562 271.671875 165.988281 277.917969 173.789062 277.917969 Z M 173.789062 277.917969 " fill-opacity="1" fill-rule="nonzero"/></svg>